<svg xmlns="http://www.w3.org/2000/svg" xmlns:xlink="http://www.w3.org/1999/xlink" width="1366" height="376.438" viewBox="0 0 1366 376.438"><defs><style>.a{fill:url(#a);}.b{fill:#3e4245;}.c{fill:url(#b);}</style><linearGradient id="a" x1="0.5" x2="0.5" y2="1" gradientUnits="objectBoundingBox"><stop offset="0" stop-color="#21282e"/><stop offset="0.844" stop-color="#586065"/><stop offset="1" stop-color="#626a6f"/></linearGradient><linearGradient id="b" x1="0.5" x2="0.5" y2="1" gradientUnits="objectBoundingBox"><stop offset="0" stop-color="#262727"/><stop offset="0.74" stop-color="#42474b"/><stop offset="1"/></linearGradient></defs><g transform="translate(0.097 -1581.562)"><rect width="1366" height="317" transform="translate(-0.097 1641)"/><path class="a" d="M-8343.1-6504.914s9.792,11.589,0,25.692c-12.076,2.948-13.421-14.719-9.772-23.5,5.786-10.665,12.692-7.387,15.3-6.729,6.8,2.333,12.824,16.985,6.613,30.228" transform="translate(8364 8092)"/><path class="b" d="M-10290.255-8090.839l14.826,1.334v16.61l-18.71-.324,2.463-4.141.594-1.416.642-2.406.605-2.99.065-1.732v-1.766l-.148-1.418-.149-.4Z" transform="translate(10314.945 9686)"/><path class="c" d="M-8363-6494.667s-2.379,27.2,16.447,30.5c8.631,2.878,16.862-9.316,17.4-21.315s-11.865-23.949-11.865-23.949l560.875,59.786H-8363Z" transform="translate(8363 8091)"/></g></svg>