<svg xmlns="http://www.w3.org/2000/svg" width="90" height="90" viewBox="0 0 90 90"><defs><style>.a,.b{fill:#26d9c7;}.a{opacity:0.1;}.c{fill:#fff;}.d{fill:#13b59c;}</style></defs><g transform="translate(-638 -1318)"><circle class="a" cx="45" cy="45" r="45" transform="translate(638 1318)"/><g transform="translate(602 1336.5)"><g transform="translate(61 0)"><g transform="translate(0 0)"><path class="b" d="M99.462,8.449C90.946,8.449,82.121.483,82.034.4a1.528,1.528,0,0,0-2.067,0c-.088.08-8.89,8.046-17.428,8.046A1.546,1.546,0,0,0,61,10V28.6c0,15.064,11.1,21.083,19.451,24.3a1.526,1.526,0,0,0,1.1,0C93.257,48.387,101,41.35,101,28.6V10A1.546,1.546,0,0,0,99.462,8.449Z" transform="translate(-61 0)"/></g><path class="c" d="M7.5,0A7.5,7.5,0,1,1,0,7.5,7.5,7.5,0,0,1,7.5,0Z" transform="translate(12.473 19.462)"/></g><g transform="translate(70.2 15.7)"><g transform="translate(0)"><path class="d" d="M161.8,151a10.8,10.8,0,1,0,10.8,10.8A10.812,10.812,0,0,0,161.8,151Zm4.177,10.348-4.629,4.629a1.542,1.542,0,0,1-2.182,0l-1.543-1.543a1.543,1.543,0,1,1,2.182-2.182l.452.452,3.538-3.538a1.543,1.543,0,1,1,2.182,2.182Z" transform="translate(-151 -151)"/></g></g></g></g></svg>