<svg xmlns="http://www.w3.org/2000/svg" width="90" height="90" viewBox="0 0 90 90"><defs><style>.a,.b{fill:#26d9c7;}.a{opacity:0.1;}.c{fill:#13b59c;}</style></defs><g transform="translate(-246 -1318)"><rect class="a" width="90" height="90" rx="45" transform="translate(246 1318)"/><g transform="translate(265 1337)"><circle class="b" cx="4.925" cy="4.925" r="4.925" transform="translate(2.686 32.224)"/><ellipse class="b" cx="4.477" cy="4.925" rx="4.477" ry="4.925" transform="translate(21.483 32.224)"/><path class="b" d="M12.793,422a7.6,7.6,0,0,1-10.346,0A7.6,7.6,0,0,0,0,427.588v2.032a1.524,1.524,0,0,0,1.524,1.524H13.715a1.524,1.524,0,0,0,1.524-1.524v-2.032A7.6,7.6,0,0,0,12.793,422Z" transform="translate(0 -379.143)"/><path class="b" d="M193.793,422a7.6,7.6,0,0,1-10.346,0A7.6,7.6,0,0,0,181,427.588v2.032a1.524,1.524,0,0,0,1.524,1.524h12.191a1.524,1.524,0,0,0,1.524-1.524v-2.032A7.6,7.6,0,0,0,193.793,422Z" transform="translate(-162.62 -379.143)"/><path class="b" d="M374.793,422a7.6,7.6,0,0,1-10.346,0A7.6,7.6,0,0,0,362,427.588v2.032a1.524,1.524,0,0,0,1.524,1.524h12.191a1.524,1.524,0,0,0,1.524-1.524v-2.032A7.6,7.6,0,0,0,374.793,422Z" transform="translate(-325.239 -379.143)"/><circle class="b" cx="4.925" cy="4.925" r="4.925" transform="translate(39.384 32.224)"/><path class="c" d="M92.989,24.383h3.047a4.576,4.576,0,0,0,4.57-4.572V16.763a4.576,4.576,0,0,0-4.57-4.572H94.427a13.709,13.709,0,0,0-27.249,0H65.57A4.576,4.576,0,0,0,61,16.763v3.048a4.576,4.576,0,0,0,4.57,4.572h1.523v.508a3.559,3.559,0,0,0,3.554,3.556h8.632a1.523,1.523,0,1,0,3.047,0V25.4a1.523,1.523,0,1,0-3.047,0H70.647a.508.508,0,0,1-.508-.508V13.715a10.663,10.663,0,1,1,21.326,0v9.143A1.524,1.524,0,0,0,92.989,24.383Z" transform="translate(-54.803)"/></g></g></svg>