<svg xmlns="http://www.w3.org/2000/svg" width="90" height="90" viewBox="0 0 90 90"><defs><style>.a,.b{fill:#26d9c7;}.a{opacity:0.1;}.c{fill:#13b59c;}</style></defs><g transform="translate(-246 -1318)"><rect class="a" width="90" height="90" rx="45" transform="translate(246 1318)"/><g transform="translate(265.947 1337.992)"><g transform="translate(0.054 29.485)"><g transform="translate(0)"><path class="b" d="M4.647,302H1.52a1.465,1.465,0,0,0-1.466,1.466v17.592a1.465,1.465,0,0,0,1.466,1.466H4.647a4.4,4.4,0,0,0,4.4-4.4V306.4A4.4,4.4,0,0,0,4.647,302Z" transform="translate(-0.054 -302)"/></g></g><g transform="translate(11.947 28.922)"><path class="b" d="M159.731,299.652a2.686,2.686,0,0,0-.674-.733,2.9,2.9,0,0,0-3.958.293l-6.656,7.682-.205.234a4.326,4.326,0,0,1-3.225,1.407H133.637a1.466,1.466,0,1,1,0-2.932h8.942a2.941,2.941,0,0,0,2.932-2.932v-.029a2.934,2.934,0,0,0-2.932-2.9h-5.307a4.036,4.036,0,0,1-2.58-.968,10.275,10.275,0,0,0-12.637-.674V316.13a33.84,33.84,0,0,0,8.913,1.2h13.077a10.276,10.276,0,0,0,8.209-4.1l7.037-9.382A3.883,3.883,0,0,0,159.731,299.652Z" transform="translate(-122.056 -296.246)"/></g><g transform="translate(9.713 0)"><path class="c" d="M128.687,2.834a8.351,8.351,0,0,0-13.249.931c-.132.185-.256.369-.372.552-.116-.183-.239-.367-.371-.552a8.351,8.351,0,0,0-13.249-.931,9.774,9.774,0,0,0-2.393,6.528c0,2.69,1.044,5.172,3.285,7.812a70.947,70.947,0,0,0,8.008,7.412c1.2,1.013,2.441,2.06,3.76,3.2a1.466,1.466,0,0,0,1.92,0c1.319-1.143,2.559-2.19,3.76-3.2,2.086-1.761,3.887-3.281,5.45-4.756,3.035-2.863,5.843-6.113,5.843-10.468A9.773,9.773,0,0,0,128.687,2.834Z" transform="translate(-99.054 0)"/></g></g></g></svg>